<?xml version="1.0" encoding="UTF-8" standalone="no"?>
<!-- Created with Inkscape (http://www.inkscape.org/) -->

<svg
   xmlns:dc="http://purl.org/dc/elements/1.1/"
   xmlns:cc="http://creativecommons.org/ns#"
   xmlns:rdf="http://www.w3.org/1999/02/22-rdf-syntax-ns#"
   xmlns:svg="http://www.w3.org/2000/svg"
   xmlns="http://www.w3.org/2000/svg"
   xmlns:sodipodi="http://sodipodi.sourceforge.net/DTD/sodipodi-0.dtd"
   xmlns:inkscape="http://www.inkscape.org/namespaces/inkscape"
   width="100"
   height="100"
   viewBox="0 0 99.999997 99.999997"
   id="svg4418"
   version="1.1"
   inkscape:version="0.91 r13725"
   sodipodi:docname="dice.svg">
  <defs
     id="defs4420" />
  <sodipodi:namedview
     id="base"
     pagecolor="#ffffff"
     bordercolor="#666666"
     borderopacity="1.0"
     inkscape:pageopacity="0.0"
     inkscape:pageshadow="2"
     inkscape:zoom="1.215361"
     inkscape:cx="192.58075"
     inkscape:cy="-14.946623"
     inkscape:document-units="px"
     inkscape:current-layer="layer1"
     showgrid="false"
     inkscape:object-nodes="true"
     inkscape:window-width="1680"
     inkscape:window-height="988"
     inkscape:window-x="-8"
     inkscape:window-y="-8"
     inkscape:window-maximized="1"
     inkscape:snap-intersection-paths="false"
     inkscape:snap-smooth-nodes="true"
     inkscape:snap-others="true"
     inkscape:snap-global="false"
     showguides="true"
     units="px" />
  <metadata
     id="metadata4423">
    <rdf:RDF>
      <cc:Work
         rdf:about="">
        <dc:format>image/svg+xml</dc:format>
        <dc:type
           rdf:resource="http://purl.org/dc/dcmitype/StillImage" />
        <dc:title />
      </cc:Work>
    </rdf:RDF>
  </metadata>
  <g
     inkscape:label="Layer 1"
     inkscape:groupmode="layer"
     id="layer1"
     transform="translate(0,-952.36223)">
    <g
       id="g4307"
       transform="matrix(0.40950649,0,0,0.40950649,155.21669,804.37284)">
      <g
         transform="translate(-520,20)"
         id="g4213">
        <path
           sodipodi:type="star"
           style="fill:#e9c6af;fill-opacity:1;stroke:none"
           id="path4206"
           sodipodi:sides="6"
           sodipodi:cx="751.45758"
           sodipodi:cy="463.48291"
           sodipodi:r1="119.47022"
           sodipodi:r2="59.735111"
           sodipodi:arg1="1.5707963"
           sodipodi:arg2="2.0943951"
           inkscape:flatsided="true"
           inkscape:rounded="0.06"
           inkscape:randomized="0"
           d="m 751.45758,582.95313 c -7.16821,0 -99.88014,-53.52725 -103.46425,-59.73511 -3.5841,-6.20785 -3.58411,-113.26236 0,-119.47022 3.58411,-6.20785 96.29603,-59.73511 103.46425,-59.73511 7.16821,0 99.88014,53.52725 103.46425,59.73511 3.5841,6.20785 3.58411,113.26236 0,119.47022 -3.58411,6.20785 -96.29603,59.73511 -103.46425,59.73511 z"
           inkscape:transform-center-y="25.83544"
           inkscape:transform-center-x="-2.9029252e-05" />
        <path
           style="fill:#c87137;fill-opacity:1;stroke:none"
           inkscape:transform-center-x="-2.9029252e-05"
           inkscape:transform-center-y="25.83544"
           d="m 751.45758,582.95313 c -7.16821,0 -99.88014,-53.52725 -103.46425,-59.73511 -3.5841,-6.20785 -3.58411,-113.26236 0,-119.47022 84.89381,36.28189 101.63038,64.03639 103.46425,179.20533 z"
           id="path4208"
           inkscape:connector-curvature="0"
           sodipodi:nodetypes="cscc" />
        <path
           transform="scale(1,-1)"
           d="m 851.35032,-405.60582 c -5.9337,10.27748 -191.85642,10.27748 -197.79012,0 -5.93371,-10.27748 87.02765,-171.29127 98.89506,-171.29127 11.86741,0 104.82877,161.01379 98.89506,171.29127 z"
           inkscape:randomized="0"
           inkscape:rounded="0.06"
           inkscape:flatsided="true"
           sodipodi:arg2="1.5707963"
           sodipodi:arg1="0.52359878"
           sodipodi:r2="98.895058"
           sodipodi:r1="114.19418"
           sodipodi:cy="-462.70291"
           sodipodi:cx="752.45526"
           sodipodi:sides="3"
           id="path4211"
           style="fill:#deaa87;fill-opacity:1;stroke:none"
           sodipodi:type="star" />
      </g>
    </g>
    <g
       id="g4289"
       transform="matrix(0.33836779,0,0,0.33836858,69.637744,940.53574)">
      <rect
         ry="44.547726"
         y="64.505058"
         x="119.28571"
         height="236.42857"
         width="236.42857"
         id="rect4966"
         style="fill:#e9c6af;fill-opacity:1;stroke:none;stroke-width:8.99699974;stroke-miterlimit:4;stroke-dasharray:none;stroke-opacity:1" />
      <path
         id="rect4970"
         d="m 134.38672,75.585938 c -9.26504,8.151813 -15.10156,20.099429 -15.10156,33.466792 l 0,147.33399 c 0,24.67944 19.86938,44.54687 44.54882,44.54687 l 147.33204,0 c 13.36736,0 25.31498,-5.83652 33.46679,-15.10156 L 134.38672,75.585938 Z"
         style="fill:#c87137;fill-opacity:1;stroke:none;stroke-width:8.99699974;stroke-miterlimit:4;stroke-dasharray:none;stroke-opacity:1"
         inkscape:connector-curvature="0" />
      <circle
         r="110.30865"
         cy="182.71935"
         cx="237.5"
         id="path4968"
         style="fill:#deaa87;fill-opacity:1;stroke:none;stroke-width:8.99699974;stroke-miterlimit:4;stroke-dasharray:none;stroke-opacity:1" />
    </g>
    <g
       id="g4294"
       transform="matrix(0.37644058,0,0,0.37644058,-153.71601,932.22368)">
      <g
         id="g4152">
        <path
           sodipodi:type="star"
           style="fill:#deaa87;fill-opacity:1;stroke:none;stroke-width:8.99699974;stroke-miterlimit:4;stroke-dasharray:none;stroke-opacity:1"
           id="path4983"
           sodipodi:sides="3"
           sodipodi:cx="541.16394"
           sodipodi:cy="214.32188"
           sodipodi:r1="144.39464"
           sodipodi:r2="88.369522"
           sodipodi:arg1="0.52359878"
           sodipodi:arg2="1.5707963"
           inkscape:flatsided="false"
           inkscape:rounded="0.16"
           inkscape:randomized="0"
           d="m 666.21336,286.5192 c -10.08726,17.47166 -104.87488,16.17221 -125.04942,16.17221 -20.17453,0 -114.96216,1.29945 -125.04942,-16.17221 -10.08727,-17.47166 38.4319,-98.91042 48.51917,-116.38207 10.08727,-17.47166 56.35572,-100.209883 76.53025,-100.209884 20.17453,0 66.44298,82.738214 76.53025,100.209874 10.08727,17.47166 58.60644,98.91042 48.51917,116.38208 z"
           inkscape:transform-center-y="-34.840932" />
        <path
           style="fill:#e9c6af;fill-opacity:1;stroke:none;stroke-width:8.99699974;stroke-miterlimit:4;stroke-dasharray:none;stroke-opacity:1"
           d="m 541.63317,69.95572 -0.43166,123.98217 c 0,0 0.6304,10.78739 3.20871,15.32525 2.79074,4.91176 12.47168,11.47516 12.47168,11.47516 l 110.19436,63.62069 c 5.45576,-22.6252 -39.73344,-97.5109 -49.38159,-114.222 -10.01057,-17.3388 -55.65013,-98.941058 -76.0615,-100.18127 z"
           id="path4992"
           inkscape:connector-curvature="0"
           sodipodi:nodetypes="ccsccsc" />
        <path
           style="fill:#c87137;fill-opacity:1;fill-rule:evenodd;stroke:none;stroke-width:1px;stroke-linecap:butt;stroke-linejoin:miter;stroke-opacity:1"
           d="m 541.13985,215.64963 c -5.51271,-2.1e-4 -15.73677,5.08565 -15.73677,5.08565 l -110.15739,63.59957 c 0.2171,0.80693 0.49886,1.54344 0.86896,2.18448 10.08727,17.47165 104.8748,16.17238 125.04934,16.17238 20.17453,0 114.96207,1.29927 125.04934,-16.17238 0.36646,-0.63473 0.64651,-1.3629 0.86293,-2.16034 L 556.8819,220.7383 c 0,0 -10.22736,-5.08846 -15.74205,-5.08867 z"
           id="path4997"
           inkscape:connector-curvature="0"
           sodipodi:nodetypes="accssscca" />
      </g>
    </g>
    <g
       id="g4300"
       transform="matrix(0.41566511,0,0,0.41566511,121.22175,794.2227)">
      <path
         sodipodi:nodetypes="cscccc"
         inkscape:connector-curvature="0"
         id="path4227"
         d="m 548.06315,598.73275 c 4.94537,3.38243 120.58376,-62.19892 118.32723,-68.13467 -2.25653,-5.93575 -58.1101,-42.00784 -58.1101,-42.00784 l -64.87159,59.92622 -5.81808,34.10815 z"
         style="fill:#d69569;fill-opacity:1;fill-rule:evenodd;stroke:none;stroke-width:1px;stroke-linecap:butt;stroke-linejoin:miter;stroke-opacity:1" />
      <path
         sodipodi:nodetypes="ccccc"
         inkscape:connector-curvature="0"
         id="path4225"
         d="m 434.39038,530.59808 113.67277,68.13467 4.65446,-81.37934 -69.81696,-45.38103 z"
         style="fill:#a05a2c;fill-opacity:1;fill-rule:evenodd;stroke:none;stroke-width:1px;stroke-linecap:butt;stroke-linejoin:miter;stroke-opacity:1" />
      <path
         style="fill:#e9c6af;fill-opacity:1;stroke:none"
         inkscape:transform-center-y="-15.351612"
         d="m 550.39038,402.61786 c 6.02371,0 107.53973,64.0525 110.99011,68.99011 3.3454,4.78737 9.86998,54.91745 5.00989,58.99011 -4.61698,3.86893 -42.26292,-12.42092 -46.99011,-16.99011 -4.33117,-4.18641 -75.0336,-110.99011 -69.00989,-110.99011 z"
         id="path4221"
         inkscape:connector-curvature="0"
         sodipodi:nodetypes="sssss" />
      <path
         sodipodi:nodetypes="sssss"
         inkscape:connector-curvature="0"
         id="path4218"
         d="m 550.39038,402.61786 c 6.02371,0 70.99011,104.9664 70.99011,110.99011 0,6.02371 -64.9664,70.99011 -70.99011,70.99011 -6.02371,0 -70.99011,-64.9664 -70.99011,-70.99011 0,-6.02371 64.9664,-110.99011 70.99011,-110.99011 z"
         inkscape:transform-center-y="-15.351612"
         style="fill:#deaa87;fill-opacity:1;stroke:none" />
      <path
         sodipodi:nodetypes="sssss"
         inkscape:connector-curvature="0"
         id="path4223"
         d="m 550.39038,402.61786 c -6.02371,0 -107.53973,64.0525 -110.99011,68.99011 -3.3454,4.78737 -9.86998,54.91745 -5.00989,58.99011 4.61698,3.86893 42.26292,-12.42092 46.99011,-16.99011 4.33117,-4.18641 75.0336,-110.99011 69.00989,-110.99011 z"
         inkscape:transform-center-y="-15.351612"
         style="fill:#c87137;fill-opacity:1;stroke:none" />
    </g>
    <g
       id="g4281"
       transform="matrix(0.31231835,0,0,0.31231835,330.62507,762.90954)">
      <path
         id="path4276"
         d="m 232.7793,717.56445 c -0.0874,0.18547 -0.1806,0.37852 -0.22071,0.50196 -1.80322,5.54976 -1.80322,91.70609 0,97.25586 1.80323,5.54976 52.44511,75.25169 57.16602,78.68164 0.45046,0.32727 1.78838,0.92062 3.51172,1.62695 l 42.87695,-62.54492 -45.46484,-90.72071 -57.86914,-24.80078 z"
         style="fill:#a05a2c;fill-opacity:1;stroke:none"
         inkscape:connector-curvature="0" />
      <path
         id="path4261"
         d="m 336.11328,833.08594 -42.87695,62.54492 c 16.33769,6.69625 83.7058,28.42773 88.98437,28.42773 5.83537,0 87.77518,-26.62474 92.4961,-30.05468 0.18479,-0.13426 0.46338,-0.40291 0.7832,-0.73243 l -45.58594,-55.24804 -93.80078,-4.9375 z"
         style="fill:#c87137;fill-opacity:1;fill-rule:evenodd;stroke:none;stroke-width:1px;stroke-linecap:butt;stroke-linejoin:miter;stroke-opacity:1"
         inkscape:connector-curvature="0" />
      <path
         id="path4251"
         d="m 382.2207,609.33008 c -5.83537,0 -87.77518,26.62474 -92.49609,30.05469 -4.61591,3.35365 -53.10391,70.02627 -56.94531,78.17968 l 57.86914,24.80078 91.57422,-41.0039 0,-92.03125 c -4.7e-4,0 -0.002,0 -0.002,0 z"
         style="fill:#deaa87;fill-opacity:1;fill-rule:evenodd;stroke:none;stroke-width:1px;stroke-linecap:butt;stroke-linejoin:miter;stroke-opacity:1"
         inkscape:connector-curvature="0" />
      <path
         id="path4249"
         d="m 382.22266,609.33008 0,92.03125 91.57226,41.0039 57.86719,-24.80078 c -3.84339,-8.15594 -52.32951,-74.8261 -56.94531,-78.17968 -4.72054,-3.42968 -86.64722,-30.05049 -92.49414,-30.05469 z"
         style="fill:#e9c6af;fill-opacity:1;fill-rule:evenodd;stroke:none;stroke-width:1px;stroke-linecap:butt;stroke-linejoin:miter;stroke-opacity:1"
         inkscape:connector-curvature="0" />
      <path
         id="path4263"
         d="m 531.66211,717.56445 -57.86719,24.80078 -43.88086,95.65821 45.58594,55.24804 c 7.84894,-8.08592 54.65012,-72.61654 56.38281,-77.94921 1.80323,-5.54977 1.80323,-91.7061 0,-97.25586 -0.0401,-0.12356 -0.13318,-0.31624 -0.2207,-0.50196 z"
         style="fill:#deaa87;fill-opacity:1;fill-rule:evenodd;stroke:none;stroke-width:1px;stroke-linecap:butt;stroke-linejoin:miter;stroke-opacity:1"
         inkscape:connector-curvature="0" />
      <path
         transform="scale(1,-1)"
         inkscape:transform-center-y="-8.8177392"
         d="m 382.2219,-661.53085 c -7.77981,0 -102.4959,-68.81526 -104.9,-76.2143 -2.40409,-7.39904 33.77423,-118.74448 40.06823,-123.31733 6.294,-4.57286 123.36952,-4.57287 129.66352,-10e-6 6.294,4.57286 42.47233,115.9183 40.06824,123.31734 -2.4041,7.39904 -97.12018,76.2143 -104.89999,76.2143 z"
         inkscape:randomized="0"
         inkscape:rounded="0.06"
         inkscape:flatsided="true"
         sodipodi:arg2="2.1991149"
         sodipodi:arg1="1.5707963"
         sodipodi:r2="89.233269"
         sodipodi:r1="110.29838"
         sodipodi:cy="-771.82922"
         sodipodi:cx="382.22189"
         sodipodi:sides="5"
         id="path4231"
         style="fill:#d69569;fill-opacity:1;stroke:none"
         sodipodi:type="star" />
    </g>
    <g
       id="g4214"
       transform="matrix(0.90566633,0,0,0.90566633,15.410242,89.174715)">
      <path
         inkscape:transform-center-x="2.5681127"
         transform="matrix(0.61114664,0.35284568,-0.35284568,0.61114664,895.55086,257.48251)"
         inkscape:transform-center-y="4.4480947"
         d="m 157.66997,1205.3215 c -4.20172,0 -34.47075,-0.4886 -38.10954,-2.5895 -3.63879,-2.1008 -19.19649,-28.0703 -21.297345,-31.7091 -2.100858,-3.6387 -16.812188,-30.0968 -16.812188,-34.2985 0,-4.2017 14.711329,-30.6598 16.812186,-34.2986 2.100857,-3.6388 17.658557,-29.6082 21.297347,-31.7091 3.63879,-2.1008 33.90782,-2.5895 38.10954,-2.5895 4.20171,0 34.47074,0.4887 38.10953,2.5895 3.63879,2.1009 19.19649,28.0703 21.29735,31.7091 2.10086,3.6388 16.81219,30.0968 16.81219,34.2986 0,4.2017 -14.71133,30.6598 -16.81219,34.2985 -2.10086,3.6388 -17.65855,29.6083 -21.29735,31.7091 -3.63879,2.1009 -33.90782,2.5895 -38.10953,2.5895 z"
         inkscape:randomized="0"
         inkscape:rounded="0.11"
         inkscape:flatsided="false"
         sodipodi:arg2="2.0943951"
         sodipodi:arg1="1.5707963"
         sodipodi:r2="76.21907"
         sodipodi:r1="68.59716"
         sodipodi:cy="1136.7244"
         sodipodi:cx="157.66997"
         sodipodi:sides="6"
         id="path4168"
         style="opacity:1;fill:#deaa87;fill-opacity:1;stroke:none;stroke-width:6.0999999;stroke-miterlimit:4;stroke-dasharray:none;stroke-opacity:1"
         sodipodi:type="star" />
      <path
         inkscape:connector-curvature="0"
         id="path4201"
         d="m 590.82195,954.034 c -2.9651,0 -21.6364,10.38141 -24.20426,11.86392 -2.56786,1.48264 -20.89409,12.46175 -22.37665,15.02965 -0.0366,0.0637 -0.0717,0.14729 -0.10697,0.23306 15.27244,9.82621 37.10512,23.17667 43.34649,23.40777 6.70626,0.2484 33.59225,-13.46883 50.2266,-22.79131 -0.0957,-0.36919 -0.19691,-0.66351 -0.30431,-0.84952 -1.48257,-2.5679 -19.80879,-13.54701 -22.37665,-15.02965 -2.56786,-1.48251 -21.23916,-11.86392 -24.20428,-11.86392 z"
         style="opacity:1;fill:#e9c6af;fill-opacity:1;stroke:none;stroke-width:6.0999999;stroke-miterlimit:4;stroke-dasharray:none;stroke-opacity:1" />
      <path
         sodipodi:nodetypes="sccccs"
         inkscape:connector-curvature="0"
         id="path4210"
         d="m 157.66997,1205.3215 c -4.20172,0 -34.47075,-0.4886 -38.10954,-2.5895 4.22609,-49.2944 47.93554,-87.6473 114.32861,-66.0076 0,4.2017 -14.71133,30.6598 -16.81219,34.2985 -2.10086,3.6388 -17.65855,29.6083 -21.29735,31.7091 -3.63879,2.1009 -33.90782,2.5895 -38.10953,2.5895 z"
         inkscape:transform-center-y="4.4480947"
         inkscape:transform-center-x="2.5681127"
         style="opacity:1;fill:#a05a2c;fill-opacity:1;stroke:none;stroke-width:6.0999999;stroke-miterlimit:4;stroke-dasharray:none;stroke-opacity:1"
         transform="matrix(0.61114664,0.35284568,-0.35284568,0.61114664,895.55086,257.48251)" />
      <path
         inkscape:transform-center-x="1.6574932e-005"
         inkscape:transform-center-y="6.0200497"
         d="m 590.82208,1043.9194 c -3.4326,0 -16.15992,-22.605 -17.87622,-25.5777 -1.7163,-2.9727 -14.92915,-25.29739 -13.21285,-28.27011 1.7163,-2.97272 27.65647,-2.6924 31.08907,-2.6924 3.4326,0 29.37278,-0.28032 31.08908,2.6924 1.7163,2.97272 -11.49656,25.29741 -13.21286,28.27011 -1.7163,2.9727 -14.44362,25.5777 -17.87622,25.5777 z"
         inkscape:randomized="0"
         inkscape:rounded="0.11"
         inkscape:flatsided="false"
         sodipodi:arg2="2.6179939"
         sodipodi:arg1="1.5707963"
         sodipodi:r2="20.64168"
         sodipodi:r1="35.898571"
         sodipodi:cy="1008.0209"
         sodipodi:cx="590.82208"
         sodipodi:sides="3"
         id="path4183"
         style="opacity:1;fill:#d69569;fill-opacity:1;stroke:none;stroke-width:6.0999999;stroke-miterlimit:4;stroke-dasharray:none;stroke-opacity:1"
         sodipodi:type="star" />
      <path
         sodipodi:nodetypes="cscsc"
         inkscape:connector-curvature="0"
         id="path4185"
         d="m 622.05686,990.93411 c -0.1687,5.04594 -11.75822,24.63559 -13.35852,27.40739 -1.61436,2.7961 -12.97037,22.9594 -17.17027,25.345 7.07354,-0.2691 43.22649,-4.4457 45.74188,-8.8025 2.50651,-4.3414 -11.84255,-37.52046 -15.21309,-43.94989 z"
         style="opacity:1;fill:#c87137;fill-opacity:1;stroke:none;stroke-width:6.0999999;stroke-miterlimit:4;stroke-dasharray:none;stroke-opacity:1" />
      <path
         sodipodi:nodetypes="scscs"
         style="opacity:1;fill:#deaa87;fill-opacity:1;stroke:none;stroke-width:6.0999999;stroke-miterlimit:4;stroke-dasharray:none;stroke-opacity:1"
         d="m 590.82206,954.43381 c -4.9923,0 -26.39762,28.78064 -30.40967,35.07697 4.46707,-2.37382 27.21034,-2.13196 30.40967,-2.13196 3.19918,0 25.94017,-0.2415 30.4088,2.13196 -4.0123,-6.29664 -25.41654,-35.07697 -30.4088,-35.07697 z"
         id="path4190"
         inkscape:connector-curvature="0" />
      <path
         sodipodi:nodetypes="cscsc"
         inkscape:connector-curvature="0"
         id="path4192"
         d="m 559.58639,990.93411 c -3.37228,6.43384 -17.71849,39.60719 -15.21222,43.94819 2.51529,4.3566 38.66534,8.533 45.74102,8.8025 -4.1999,-2.3857 -15.55505,-22.5489 -17.16941,-25.345 -1.60013,-2.7716 -13.18827,-22.35722 -13.35939,-27.40569 z"
         style="opacity:1;fill:#c87137;fill-opacity:1;stroke:none;stroke-width:6.0999999;stroke-miterlimit:4;stroke-dasharray:none;stroke-opacity:1" />
    </g>
  </g>
</svg>
