<?xml version="1.0" encoding="UTF-8" standalone="no"?>
<!-- Created with Inkscape (http://www.inkscape.org/) -->

<svg
   xmlns:dc="http://purl.org/dc/elements/1.1/"
   xmlns:cc="http://creativecommons.org/ns#"
   xmlns:rdf="http://www.w3.org/1999/02/22-rdf-syntax-ns#"
   xmlns:svg="http://www.w3.org/2000/svg"
   xmlns="http://www.w3.org/2000/svg"
   xmlns:sodipodi="http://sodipodi.sourceforge.net/DTD/sodipodi-0.dtd"
   xmlns:inkscape="http://www.inkscape.org/namespaces/inkscape"
   width="150"
   height="80"
   viewBox="0 0 150 79.999998"
   id="svg2"
   version="1.1"
   inkscape:version="0.91 r13725"
   sodipodi:docname="icons.svg">
  <defs
     id="defs4">
    <inkscape:perspective
       sodipodi:type="inkscape:persp3d"
       inkscape:vp_x="0 : 526.18108 : 1"
       inkscape:vp_y="0 : 999.99995 : 0"
       inkscape:vp_z="744.09449 : 526.18108 : 1"
       inkscape:persp3d-origin="372.04724 : 350.78739 : 1"
       id="perspective4147" />
  </defs>
  <sodipodi:namedview
     id="base"
     pagecolor="#ffffff"
     bordercolor="#666666"
     borderopacity="1.0"
     inkscape:pageopacity="0.0"
     inkscape:pageshadow="2"
     inkscape:zoom="3.959798"
     inkscape:cx="69.840497"
     inkscape:cy="29.845465"
     inkscape:document-units="px"
     inkscape:current-layer="layer1"
     showgrid="false"
     showguides="true"
     inkscape:window-width="1680"
     inkscape:window-height="988"
     inkscape:window-x="-8"
     inkscape:window-y="-8"
     inkscape:window-maximized="1"
     units="px"
     inkscape:guide-bbox="true"
     inkscape:snap-object-midpoints="true"
     inkscape:snap-to-guides="true">
    <sodipodi:guide
       position="50.002551,84.347735"
       orientation="1,0"
       id="guide4288" />
    <sodipodi:guide
       position="100.0051,47.729706"
       orientation="1,0"
       id="guide4290" />
    <sodipodi:guide
       position="32.072343,39.999999"
       orientation="0,1"
       id="guide4292"
       inkscape:label=""
       inkscape:color="rgb(0,0,255)" />
  </sodipodi:namedview>
  <metadata
     id="metadata7">
    <rdf:RDF>
      <cc:Work
         rdf:about="">
        <dc:format>image/svg+xml</dc:format>
        <dc:type
           rdf:resource="http://purl.org/dc/dcmitype/StillImage" />
        <dc:title></dc:title>
      </cc:Work>
    </rdf:RDF>
  </metadata>
  <g
     inkscape:label="Ebene 1"
     inkscape:groupmode="layer"
     id="layer1"
     transform="translate(0,-972.36223)">
    <g
       id="g4241"
       transform="matrix(0.82516967,0,0,0.82516967,4.0481447,186.18162)">
      <path
         sodipodi:nodetypes="scccccs"
         inkscape:connector-curvature="0"
         id="path4136"
         d="m 25.391376,957.12478 c -11.713144,-6e-5 -21.2085363,2.63236 -21.2081693,5.87957 1.267334,10.77892 2.744085,21.84883 4.035552,31.10298 0.360443,2.58009 7.6380673,4.69406 17.0605573,4.69406 9.21422,-0.003 16.66961,-2.0289 17.03458,-4.55197 1.51701,-10.74947 2.97139,-21.67466 4.28483,-31.24507 3.6e-4,-3.24712 -9.49453,-5.87951 -21.20735,-5.87957 z"
         style="opacity:1;fill:#a05a2c;fill-opacity:1;stroke:none;stroke-width:6.0999999;stroke-miterlimit:4;stroke-dasharray:none;stroke-opacity:1" />
      <ellipse
         style="opacity:1;fill:#784421;fill-opacity:1;stroke:none;stroke-width:6.0999999;stroke-miterlimit:4;stroke-dasharray:none;stroke-opacity:1"
         id="ellipse4138"
         cx="25.391077"
         cy="963.00397"
         rx="17.300915"
         ry="4.2716103" />
    </g>
    <g
       id="g4260"
       transform="matrix(0.87353442,0,0,0.87353442,-13.900314,136.21305)">
      <g
         id="g4174"
         transform="matrix(0.71174441,0,0,0.71174441,-22.840321,918.98537)">
        <rect
           ry="0"
           rx="0"
           y="68.347359"
           x="164.33919"
           height="19.571707"
           width="33.887928"
           id="rect4176"
           style="opacity:1;fill:#668000;fill-opacity:1;stroke:none;stroke-width:6.0999999;stroke-miterlimit:4;stroke-dasharray:none;stroke-opacity:1" />
        <rect
           transform="matrix(0.94319629,0.33223599,-0.94319629,0.33223599,0,0)"
           ry="2.6774716"
           rx="2.6774716"
           y="-2.9905939"
           x="189.22894"
           height="19.545544"
           width="19.545544"
           id="rect4178"
           style="opacity:1;fill:#aad400;fill-opacity:1;stroke:none;stroke-width:6.0999999;stroke-miterlimit:4;stroke-dasharray:none;stroke-opacity:1" />
        <rect
           style="opacity:1;fill:#668000;fill-opacity:1;stroke:none;stroke-width:6.0999999;stroke-miterlimit:4;stroke-dasharray:none;stroke-opacity:1"
           id="rect4180"
           width="19.545544"
           height="19.545544"
           x="218.84428"
           y="26.624758"
           rx="2.6774716"
           ry="2.6774716"
           transform="matrix(0.94319629,0.33223599,-0.94319629,0.33223599,0,0)" />
      </g>
      <g
         transform="matrix(0.71174441,0,0,0.71174441,-40.954106,929.65237)"
         id="g4169">
        <rect
           style="opacity:1;fill:#668000;fill-opacity:1;stroke:none;stroke-width:6.0999999;stroke-miterlimit:4;stroke-dasharray:none;stroke-opacity:1"
           id="rect4167"
           width="33.887928"
           height="19.571707"
           x="164.33919"
           y="68.347359"
           rx="0"
           ry="0" />
        <rect
           style="opacity:1;fill:#aad400;fill-opacity:1;stroke:none;stroke-width:6.0999999;stroke-miterlimit:4;stroke-dasharray:none;stroke-opacity:1"
           id="rect4163"
           width="19.545544"
           height="19.545544"
           x="189.22894"
           y="-2.9905939"
           rx="2.6774716"
           ry="2.6774716"
           transform="matrix(0.94319629,0.33223599,-0.94319629,0.33223599,0,0)" />
        <rect
           transform="matrix(0.94319629,0.33223599,-0.94319629,0.33223599,0,0)"
           ry="2.6774716"
           rx="2.6774716"
           y="26.624758"
           x="218.84428"
           height="19.545544"
           width="19.545544"
           id="rect4165"
           style="opacity:1;fill:#668000;fill-opacity:1;stroke:none;stroke-width:6.0999999;stroke-miterlimit:4;stroke-dasharray:none;stroke-opacity:1" />
      </g>
      <g
         transform="matrix(0.71174441,0,0,0.71174441,-13.582165,932.06755)"
         id="g4182">
        <rect
           style="opacity:1;fill:#668000;fill-opacity:1;stroke:none;stroke-width:6.0999999;stroke-miterlimit:4;stroke-dasharray:none;stroke-opacity:1"
           id="rect4184"
           width="33.887928"
           height="19.571707"
           x="164.33919"
           y="68.347359"
           rx="0"
           ry="0" />
        <rect
           style="opacity:1;fill:#aad400;fill-opacity:1;stroke:none;stroke-width:6.0999999;stroke-miterlimit:4;stroke-dasharray:none;stroke-opacity:1"
           id="rect4186"
           width="19.545544"
           height="19.545544"
           x="189.22894"
           y="-2.9905939"
           rx="2.6774716"
           ry="2.6774716"
           transform="matrix(0.94319629,0.33223599,-0.94319629,0.33223599,0,0)" />
        <rect
           transform="matrix(0.94319629,0.33223599,-0.94319629,0.33223599,0,0)"
           ry="2.6774716"
           rx="2.6774716"
           y="26.624758"
           x="218.84428"
           height="19.545544"
           width="19.545544"
           id="rect4188"
           style="opacity:1;fill:#668000;fill-opacity:1;stroke:none;stroke-width:6.0999999;stroke-miterlimit:4;stroke-dasharray:none;stroke-opacity:1" />
      </g>
    </g>
    <g
       id="g4274"
       transform="matrix(0.88842366,0,0,0.88842366,-36.930151,123.37347)">
      <path
         sodipodi:nodetypes="scccccs"
         inkscape:connector-curvature="0"
         id="path4190"
         d="m 180.77741,962.50034 c -8.92684,0 -11.95841,22.91464 -23.83635,26.78997 l 0,6.79748 41.05506,0 0,-1.48756 -2.18546,-6.06091 c -10.69829,0 -5.28236,-26.03898 -15.03325,-26.03898 z"
         style="fill:#87aade;fill-rule:evenodd;stroke:none;stroke-width:1px;stroke-linecap:butt;stroke-linejoin:miter;stroke-opacity:1" />
      <path
         inkscape:connector-curvature="0"
         id="path4192"
         d="m 187.90225,975.99753 c -11.42077,0 -15.06857,14.57637 -30.96119,16.24048 l 0,3.8957 50.65151,0 0,-4.52523 -1.01615,0 c -13.28861,0 -6.56234,-15.61095 -18.67417,-15.61095 z"
         style="fill:#5f8dd3;fill-rule:evenodd;stroke:none;stroke-width:0.86295259px;stroke-linecap:butt;stroke-linejoin:miter;stroke-opacity:1" />
    </g>
    <g
       id="g4278"
       transform="matrix(0.88842366,0,0,0.88842366,-36.930151,100.55242)">
      <path
         style="fill:#ac9d93;fill-opacity:1;fill-rule:evenodd;stroke:none;stroke-width:1px;stroke-linecap:butt;stroke-linejoin:miter;stroke-opacity:1"
         d="m 180.77741,1033.211 c -8.92684,0 -11.95841,22.9147 -23.83635,26.79 l 0,6.7975 41.05506,0 0,-1.4876 -2.18546,-6.0609 c -10.69829,0 -5.28236,-26.039 -15.03325,-26.039 z"
         id="path4200"
         inkscape:connector-curvature="0"
         sodipodi:nodetypes="scccccs" />
      <path
         style="fill:#6c5d53;fill-opacity:1;fill-rule:evenodd;stroke:none;stroke-width:0.86295259px;stroke-linecap:butt;stroke-linejoin:miter;stroke-opacity:1"
         d="m 187.90225,1046.7082 c -11.42077,0 -15.06857,14.5764 -30.96119,16.2405 l 0,3.8957 50.65151,0 0,-4.5252 -1.01615,0 c -13.28861,0 -6.56234,-15.611 -18.67417,-15.611 z"
         id="path4202"
         inkscape:connector-curvature="0" />
    </g>
    <g
       id="g4249"
       transform="matrix(0.87353475,0,0,0.87353475,-13.900337,115.32694)">
      <rect
         ry="0"
         rx="0"
         y="1037.3318"
         x="94.127174"
         height="13.930053"
         width="24.119543"
         id="rect4206"
         style="opacity:1;fill:#6c5d53;fill-opacity:1;stroke:none;stroke-width:6.0999999;stroke-miterlimit:4;stroke-dasharray:none;stroke-opacity:1" />
      <rect
         transform="matrix(0.94319629,0.33223599,-0.94319629,0.33223599,0,0)"
         ry="1.9056755"
         rx="1.9056755"
         y="1497.9065"
         x="1610.5018"
         height="13.911431"
         width="13.911431"
         id="rect4208"
         style="opacity:1;fill:#ac9d93;fill-opacity:1;stroke:none;stroke-width:6.0999999;stroke-miterlimit:4;stroke-dasharray:none;stroke-opacity:1" />
      <rect
         style="opacity:1;fill:#6c5d53;fill-opacity:1;stroke:none;stroke-width:6.0999999;stroke-miterlimit:4;stroke-dasharray:none;stroke-opacity:1"
         id="rect4210"
         width="13.911431"
         height="13.911431"
         x="1631.5803"
         y="1518.9851"
         rx="1.9056755"
         ry="1.9056755"
         transform="matrix(0.94319629,0.33223599,-0.94319629,0.33223599,0,0)" />
      <rect
         style="opacity:1;fill:#6c5d53;fill-opacity:1;stroke:none;stroke-width:6.0999999;stroke-miterlimit:4;stroke-dasharray:none;stroke-opacity:1"
         id="rect4214"
         width="24.119543"
         height="13.930053"
         x="76.01339"
         y="1047.9988"
         rx="0"
         ry="0" />
      <rect
         style="opacity:1;fill:#ac9d93;fill-opacity:1;stroke:none;stroke-width:6.0999999;stroke-miterlimit:4;stroke-dasharray:none;stroke-opacity:1"
         id="rect4216"
         width="13.911431"
         height="13.911431"
         x="1616.9529"
         y="1523.5623"
         rx="1.9056755"
         ry="1.9056755"
         transform="matrix(0.94319629,0.33223599,-0.94319629,0.33223599,0,0)" />
      <rect
         transform="matrix(0.94319629,0.33223599,-0.94319629,0.33223599,0,0)"
         ry="1.9056755"
         rx="1.9056755"
         y="1544.6407"
         x="1638.0314"
         height="13.911431"
         width="13.911431"
         id="rect4218"
         style="opacity:1;fill:#6c5d53;fill-opacity:1;stroke:none;stroke-width:6.0999999;stroke-miterlimit:4;stroke-dasharray:none;stroke-opacity:1" />
      <rect
         style="opacity:1;fill:#6c5d53;fill-opacity:1;stroke:none;stroke-width:6.0999999;stroke-miterlimit:4;stroke-dasharray:none;stroke-opacity:1"
         id="rect4222"
         width="24.119543"
         height="13.930053"
         x="103.38534"
         y="1050.4139"
         rx="0"
         ry="0" />
      <rect
         style="opacity:1;fill:#ac9d93;fill-opacity:1;stroke:none;stroke-width:6.0999999;stroke-miterlimit:4;stroke-dasharray:none;stroke-opacity:1"
         id="rect4224"
         width="13.911431"
         height="13.911431"
         x="1635.0978"
         y="1512.6868"
         rx="1.9056755"
         ry="1.9056755"
         transform="matrix(0.94319629,0.33223599,-0.94319629,0.33223599,0,0)" />
      <rect
         transform="matrix(0.94319629,0.33223599,-0.94319629,0.33223599,0,0)"
         ry="1.9056755"
         rx="1.9056755"
         y="1533.7653"
         x="1656.1763"
         height="13.911431"
         width="13.911431"
         id="rect4226"
         style="opacity:1;fill:#6c5d53;fill-opacity:1;stroke:none;stroke-width:6.0999999;stroke-miterlimit:4;stroke-dasharray:none;stroke-opacity:1" />
    </g>
    <g
       id="g4245"
       transform="matrix(0.82516967,0,0,0.82516967,4.0481447,169.08366)">
      <path
         style="opacity:1;fill:#ac9d93;fill-opacity:1;stroke:none;stroke-width:6.0999999;stroke-miterlimit:4;stroke-dasharray:none;stroke-opacity:1"
         d="m 25.391376,1026.3202 c -11.713144,0 -21.2085363,2.6324 -21.2081693,5.8796 1.267334,10.7789 2.744085,21.8488 4.035552,31.103 0.360443,2.5801 7.6380673,4.694 17.0605573,4.694 9.21422,0 16.66961,-2.0289 17.03458,-4.5519 1.51701,-10.7495 2.97139,-21.6747 4.28483,-31.2451 3.6e-4,-3.2471 -9.49453,-5.8795 -21.20735,-5.8796 z"
         id="path4228"
         inkscape:connector-curvature="0"
         sodipodi:nodetypes="scccccs" />
      <ellipse
         ry="4.2716103"
         rx="17.300915"
         cy="1032.1995"
         cx="25.391077"
         id="ellipse4230"
         style="opacity:1;fill:#6c5d53;fill-opacity:1;stroke:none;stroke-width:6.0999999;stroke-miterlimit:4;stroke-dasharray:none;stroke-opacity:1" />
    </g>
  </g>
</svg>
