<?xml version="1.0" encoding="UTF-8" standalone="no"?>
<!-- Created with Inkscape (http://www.inkscape.org/) -->

<svg
   xmlns:dc="http://purl.org/dc/elements/1.1/"
   xmlns:cc="http://creativecommons.org/ns#"
   xmlns:rdf="http://www.w3.org/1999/02/22-rdf-syntax-ns#"
   xmlns:svg="http://www.w3.org/2000/svg"
   xmlns="http://www.w3.org/2000/svg"
   xmlns:sodipodi="http://sodipodi.sourceforge.net/DTD/sodipodi-0.dtd"
   xmlns:inkscape="http://www.inkscape.org/namespaces/inkscape"
   width="100"
   height="100"
   viewBox="0 0 99.999997 99.999997"
   id="svg4418"
   version="1.1"
   inkscape:version="0.91 r13725"
   sodipodi:docname="d20.svg">
  <defs
     id="defs4420" />
  <sodipodi:namedview
     id="base"
     pagecolor="#ffffff"
     bordercolor="#666666"
     borderopacity="1.0"
     inkscape:pageopacity="0.0"
     inkscape:pageshadow="2"
     inkscape:zoom="0.6076805"
     inkscape:cx="259.94553"
     inkscape:cy="166.34867"
     inkscape:document-units="px"
     inkscape:current-layer="layer1"
     showgrid="false"
     inkscape:object-nodes="true"
     inkscape:window-width="1680"
     inkscape:window-height="988"
     inkscape:window-x="-8"
     inkscape:window-y="-8"
     inkscape:window-maximized="1"
     inkscape:snap-intersection-paths="false"
     inkscape:snap-smooth-nodes="true"
     inkscape:snap-others="true"
     inkscape:snap-global="false"
     showguides="true"
     units="px" />
  <metadata
     id="metadata4423">
    <rdf:RDF>
      <cc:Work
         rdf:about="">
        <dc:format>image/svg+xml</dc:format>
        <dc:type
           rdf:resource="http://purl.org/dc/dcmitype/StillImage" />
        <dc:title></dc:title>
      </cc:Work>
    </rdf:RDF>
  </metadata>
  <g
     inkscape:label="Layer 1"
     inkscape:groupmode="layer"
     id="layer1"
     transform="translate(0,-952.36223)">
    <g
       id="g4214"
       transform="matrix(0.90566633,0,0,0.90566633,-484.58976,89.174715)">
      <path
         inkscape:transform-center-x="2.5681127"
         transform="matrix(0.61114664,0.35284568,-0.35284568,0.61114664,895.55086,257.48251)"
         inkscape:transform-center-y="4.4480947"
         d="m 157.66997,1205.3215 c -4.20172,0 -34.47075,-0.4886 -38.10954,-2.5895 -3.63879,-2.1008 -19.19649,-28.0703 -21.297345,-31.7091 -2.100858,-3.6387 -16.812188,-30.0968 -16.812188,-34.2985 0,-4.2017 14.711329,-30.6598 16.812186,-34.2986 2.100857,-3.6388 17.658557,-29.6082 21.297347,-31.7091 3.63879,-2.1008 33.90782,-2.5895 38.10954,-2.5895 4.20171,0 34.47074,0.4887 38.10953,2.5895 3.63879,2.1009 19.19649,28.0703 21.29735,31.7091 2.10086,3.6388 16.81219,30.0968 16.81219,34.2986 0,4.2017 -14.71133,30.6598 -16.81219,34.2985 -2.10086,3.6388 -17.65855,29.6083 -21.29735,31.7091 -3.63879,2.1009 -33.90782,2.5895 -38.10953,2.5895 z"
         inkscape:randomized="0"
         inkscape:rounded="0.11"
         inkscape:flatsided="false"
         sodipodi:arg2="2.0943951"
         sodipodi:arg1="1.5707963"
         sodipodi:r2="76.21907"
         sodipodi:r1="68.59716"
         sodipodi:cy="1136.7244"
         sodipodi:cx="157.66997"
         sodipodi:sides="6"
         id="path4168"
         style="opacity:1;fill:#deaa87;fill-opacity:1;stroke:none;stroke-width:6.0999999;stroke-miterlimit:4;stroke-dasharray:none;stroke-opacity:1"
         sodipodi:type="star" />
      <path
         inkscape:connector-curvature="0"
         id="path4201"
         d="m 590.82195,954.034 c -2.9651,0 -21.6364,10.38141 -24.20426,11.86392 -2.56786,1.48264 -20.89409,12.46175 -22.37665,15.02965 -0.0366,0.0637 -0.0717,0.14729 -0.10697,0.23306 15.27244,9.82621 37.10512,23.17667 43.34649,23.40777 6.70626,0.2484 33.59225,-13.46883 50.2266,-22.79131 -0.0957,-0.36919 -0.19691,-0.66351 -0.30431,-0.84952 -1.48257,-2.5679 -19.80879,-13.54701 -22.37665,-15.02965 -2.56786,-1.48251 -21.23916,-11.86392 -24.20428,-11.86392 z"
         style="opacity:1;fill:#e9c6af;fill-opacity:1;stroke:none;stroke-width:6.0999999;stroke-miterlimit:4;stroke-dasharray:none;stroke-opacity:1" />
      <path
         sodipodi:nodetypes="sccccs"
         inkscape:connector-curvature="0"
         id="path4210"
         d="m 157.66997,1205.3215 c -4.20172,0 -34.47075,-0.4886 -38.10954,-2.5895 4.22609,-49.2944 47.93554,-87.6473 114.32861,-66.0076 0,4.2017 -14.71133,30.6598 -16.81219,34.2985 -2.10086,3.6388 -17.65855,29.6083 -21.29735,31.7091 -3.63879,2.1009 -33.90782,2.5895 -38.10953,2.5895 z"
         inkscape:transform-center-y="4.4480947"
         inkscape:transform-center-x="2.5681127"
         style="opacity:1;fill:#a05a2c;fill-opacity:1;stroke:none;stroke-width:6.0999999;stroke-miterlimit:4;stroke-dasharray:none;stroke-opacity:1"
         transform="matrix(0.61114664,0.35284568,-0.35284568,0.61114664,895.55086,257.48251)" />
      <path
         inkscape:transform-center-x="1.6574932e-005"
         inkscape:transform-center-y="6.0200497"
         d="m 590.82208,1043.9194 c -3.4326,0 -16.15992,-22.605 -17.87622,-25.5777 -1.7163,-2.9727 -14.92915,-25.29739 -13.21285,-28.27011 1.7163,-2.97272 27.65647,-2.6924 31.08907,-2.6924 3.4326,0 29.37278,-0.28032 31.08908,2.6924 1.7163,2.97272 -11.49656,25.29741 -13.21286,28.27011 -1.7163,2.9727 -14.44362,25.5777 -17.87622,25.5777 z"
         inkscape:randomized="0"
         inkscape:rounded="0.11"
         inkscape:flatsided="false"
         sodipodi:arg2="2.6179939"
         sodipodi:arg1="1.5707963"
         sodipodi:r2="20.64168"
         sodipodi:r1="35.898571"
         sodipodi:cy="1008.0209"
         sodipodi:cx="590.82208"
         sodipodi:sides="3"
         id="path4183"
         style="opacity:1;fill:#d69569;fill-opacity:1;stroke:none;stroke-width:6.0999999;stroke-miterlimit:4;stroke-dasharray:none;stroke-opacity:1"
         sodipodi:type="star" />
      <path
         sodipodi:nodetypes="cscsc"
         inkscape:connector-curvature="0"
         id="path4185"
         d="m 622.05686,990.93411 c -0.1687,5.04594 -11.75822,24.63559 -13.35852,27.40739 -1.61436,2.7961 -12.97037,22.9594 -17.17027,25.345 7.07354,-0.2691 43.22649,-4.4457 45.74188,-8.8025 2.50651,-4.3414 -11.84255,-37.52046 -15.21309,-43.94989 z"
         style="opacity:1;fill:#c87137;fill-opacity:1;stroke:none;stroke-width:6.0999999;stroke-miterlimit:4;stroke-dasharray:none;stroke-opacity:1" />
      <path
         sodipodi:nodetypes="scscs"
         style="opacity:1;fill:#deaa87;fill-opacity:1;stroke:none;stroke-width:6.0999999;stroke-miterlimit:4;stroke-dasharray:none;stroke-opacity:1"
         d="m 590.82206,954.43381 c -4.9923,0 -26.39762,28.78064 -30.40967,35.07697 4.46707,-2.37382 27.21034,-2.13196 30.40967,-2.13196 3.19918,0 25.94017,-0.2415 30.4088,2.13196 -4.0123,-6.29664 -25.41654,-35.07697 -30.4088,-35.07697 z"
         id="path4190"
         inkscape:connector-curvature="0" />
      <path
         sodipodi:nodetypes="cscsc"
         inkscape:connector-curvature="0"
         id="path4192"
         d="m 559.58639,990.93411 c -3.37228,6.43384 -17.71849,39.60719 -15.21222,43.94819 2.51529,4.3566 38.66534,8.533 45.74102,8.8025 -4.1999,-2.3857 -15.55505,-22.5489 -17.16941,-25.345 -1.60013,-2.7716 -13.18827,-22.35722 -13.35939,-27.40569 z"
         style="opacity:1;fill:#c87137;fill-opacity:1;stroke:none;stroke-width:6.0999999;stroke-miterlimit:4;stroke-dasharray:none;stroke-opacity:1" />
    </g>
  </g>
</svg>
